<svg xmlns="http://www.w3.org/2000/svg" viewBox="0 0 32 32" id="customer"><path fill="#01a6ff" d="M16.6 17.3l-4.7 1.6C10.2 19.4 9 21 9 22.8v3.7h21v-3.7c0-1.8-1.2-3.4-2.9-4l-4.7-1.6"></path><path fill="#006ef4" d="M20.5 26.5c.8 0 1.5-.7 1.5-1.5v-2c0-.6-.4-.9-1-.9s-1-.4-1-1v-3.9h-3.4l-4.7 1.6c-1.7.6-2.9 2.2-2.9 4v3.7h11.5z"></path><path fill="#f0c9ae" d="M16.5 14.8v2.1c0 1.6 2.9 2.9 2.9 2.9s2.9-1.3 2.9-2.9v-2.1"></path><path fill="#e2b698" d="M19.5 14.8h-3v2.1c0 1.6 2.9 2.9 2.9 2.9v-5z"></path><path fill="#006ef4" d="M30 26.5v-3.7c0-.8-.2-1.5-.6-2.2-2.5.3-4.4 2.4-4.4 5v.8h5z"></path><path fill="#8a6845" d="M30.5 26.5h-28c-.8 0-1.5.7-1.5 1.5s.7 1.5 1.5 1.5h28c.8 0 1.5-.7 1.5-1.5s-.7-1.5-1.5-1.5zM30 31.5v-2H3v2"></path><path fill="#607d95" d="M14 9v1.5h-1c-.6 0-1-.4-1-1v-1c0-.6.4-1 1-1h.5M25 9v1.5h1c.6 0 1-.4 1-1v-1c0-.6-.4-1-1-1h-.5"></path><path fill="#8a6845" d="M24.7 8.3h.3l1-2.8c.3-1.3-.7-2.5-2-2.5C24 1.5 22.6.3 21.1.6l-6 1c-1.4.2-2.3 1.6-2.1 2.9l1 3.8h.3"></path><path fill="#f0c9ae" d="M24.6 8.3c-.5 0-.9-.4-.9-.9V5.7c0-.4-.4-.6-.7-.3-1.7 1.3-4 1.8-6.1 1.4l-.9-.2c-.5 0-.9.4-.9.9s-.4.9-.9.9H14V10c0 3 2.5 5.5 5.5 5.5S25 13 25 10V8.3h-.4z"></path><path fill="#745539" d="M16.6 1.5l5.6-.9c-.3-.1-.7-.1-1.1-.1l-6 1c-1.4.2-2.3 1.6-2.1 2.9l1 3.8h1.5l-1-3.8c-.2-1.3.7-2.6 2.1-2.9z"></path><path fill="#e2b698" d="M23.8 5.5c0-.4-.4-.6-.7-.3C21.4 6.5 19.2 7 17 6.6l-.9-.2c-.2 0-.3.1-.4.1l-.3.1v.2c-.1.1-.1.3-.1.4 0 .5-.4.9-.9.9H14V10c0 3.1 2.5 5.5 5.5 5.5v.2c.3 0 .6-.3.9-.3-2.7-.4-4.7-2.7-4.7-5.5v-.4c0-.7.6-1.3 1.3-1.2 2.1.4 4.3-.1 6.1-1.4.3-.2.7 0 .7.3V5.5z"></path><path fill="#004463" d="M30.5 30h-28c-1.1 0-2-.9-2-2s.9-2 2-2h28c1.1 0 2 .9 2 2s-.9 2-2 2zm-28-3c-.6 0-1 .4-1 1s.4 1 1 1h28c.6 0 1-.4 1-1s-.4-1-1-1h-28z"></path><path fill="#004463" d="M30 32c-.3 0-.5-.2-.5-.5V30h-26v1.5c0 .3-.2.5-.5.5s-.5-.2-.5-.5v-2c0-.3.2-.5.5-.5h27c.3 0 .5.2.5.5v2c0 .3-.2.5-.5.5zM25 8.8h-.3c-.3 0-.5-.2-.5-.5s.2-.5.4-.5l.8-2.4c.1-.4 0-.9-.3-1.2-.3-.4-.7-.6-1.2-.6-.3 0-.5-.2-.5-.5 0-.6-.3-1.2-.7-1.6-.4-.4-1-.5-1.6-.4l-6 1c-.5.1-1 .4-1.3.8-.3.4-.4 1-.3 1.5l.9 3.4c.2 0 .4.2.4.5s-.2.5-.5.5H14c-.2 0-.4-.2-.5-.4l-1-3.8c-.2-.8 0-1.6.5-2.3.5-.7 1.2-1.1 2-1.2l6-1c.9-.1 1.7.1 2.4.7.6.5.9 1.2 1 1.9.6 0 1.2.3 1.5.8.5.6.7 1.4.5 2.1l-1 2.8c0 .3-.2.4-.4.4z"></path><path fill="#004463" d="M24.9 8.8h-.3c-.7 0-1.4-.6-1.4-1.4V5.9c-1.8 1.3-4.2 1.8-6.4 1.4l-.8-.2c-.1 0-.3.2-.3.4 0 .7-.6 1.4-1.4 1.4H14c-.3 0-.5-.2-.5-.5s.2-.5.5-.5h.3c.2 0 .4-.2.4-.4 0-.7.6-1.4 1.4-1.4l1 .2c2 .4 4.1-.1 5.7-1.3.3-.2.7-.2 1-.1s.5.5.5.8v1.7c0 .2.2.4.4.4h.3c.3 0 .5.2.5.5s-.3.5-.6.5zM30 27H9c-.3 0-.5-.2-.5-.5s.2-.5.5-.5h20.5v-3.2c0-1.6-1-3-2.5-3.5l-4.7-1.6c-.3-.1-.4-.4-.3-.6.1-.3.4-.4.6-.3l4.7 1.6c1.9.6 3.2 2.4 3.2 4.5v3.7c0 .2-.2.4-.5.4z"></path><path fill="#004463" d="M30 27h-5c-.3 0-.5-.2-.5-.5v-.8c0-2.8 2.1-5.2 4.9-5.5.2 0 .4.1.5.2.4.7.7 1.6.7 2.4v3.7c-.1.3-.3.5-.6.5zm-4.5-1h4v-3.2c0-.5-.1-1.1-.4-1.6-2.1.4-3.7 2.3-3.7 4.5v.3zM24.5 13.6H21c-.3 0-.5-.2-.5-.5s.2-.5.5-.5h3.5c1.1 0 2-.9 2-2V8.9c0-.3.2-.5.5-.5s.5.2.5.5v1.7c0 1.6-1.4 3-3 3zM14 11h-1c-.8 0-1.5-.7-1.5-1.5v-1c0-.8.7-1.5 1.5-1.5h.5c.3 0 .5.2.5.5s-.2.5-.5.5H13c-.3 0-.5.2-.5.5v1c0 .3.2.5.5.5h.5V9c0-.3.2-.5.5-.5s.5.2.5.5v1.5c0 .3-.2.5-.5.5z"></path><path fill="#004463" d="M26 11h-1c-.3 0-.5-.2-.5-.5V9c0-.3.2-.5.5-.5s.5.2.5.5v1h.5c.3 0 .5-.2.5-.5v-1c0-.3-.2-.5-.5-.5h-.5c-.3 0-.5-.2-.5-.5s.2-.5.5-.5h.5c.8 0 1.5.7 1.5 1.5v1c0 .8-.7 1.5-1.5 1.5z"></path><path fill="#4b6c85" d="M20 23.5H3V25c0 .8.7 1.5 1.5 1.5h14c.8 0 1.5-.7 1.5-1.5v-1.5z"></path><path fill="#40657c" d="M5 23.5H3V25c0 .8.7 1.5 1.5 1.5h14c.8 0 1.5-.7 1.5-1.5H6.5c-.8 0-1.5-.7-1.5-1.5z"></path><path fill="#004463" d="M18.5 27h-14c-1.1 0-2-.9-2-2v-1.5c0-.3.2-.5.5-.5h17c.3 0 .5.2.5.5V25c0 1.1-.9 2-2 2zm-15-3v1c0 .6.4 1 1 1h14c.6 0 1-.4 1-1v-1h-16z"></path><path fill="#607d95" d="M3 13.5h15v10H3z"></path><path fill="#4b6c85" d="M5 18.5v-5H3v10h15v-2H8c-1.7 0-3-1.3-3-3z"></path><path fill="#004463" d="M18 24H3c-.3 0-.5-.2-.5-.5v-10c0-.3.2-.5.5-.5h15c.3 0 .5.2.5.5v10c0 .3-.2.5-.5.5zM3.5 23h14v-9h-14v9z"></path><path fill="#004463" d="M19.5 20.3h-.2s-.8-.4-1.6-.9c-.2-.2-.3-.5-.1-.7s.5-.3.7-.1c.5.3.9.6 1.2.7.8-.4 2.4-1.4 2.4-2.4v-2.1c0-.3.2-.5.5-.5s.5.2.5.5v2.1c0 1.9-2.9 3.2-3.2 3.4h-.2z"></path><path fill="#004463" d="M19.5 16c-.5 0-1.1-.1-1.6-.2-.2-.1-.4-.3-.4-.5V14h-2.2c-.1 0-.3-.1-.4-.2-.9-1.1-1.4-2.4-1.4-3.8V8.5c0-.3.2-.5.5-.5s.5.2.5.5V10c0 1.1.4 2.2 1 3H18c.3 0 .5.2.5.5v1.4c.3.1.7.1 1 .1 2.8 0 5-2.2 5-5V8.5c0-.3.2-.5.5-.5s.5.2.5.5V10c0 3.3-2.7 6-6 6z"></path><circle cx="10.5" cy="18.5" r="1" fill="#004463"></circle></svg>