<svg xmlns="http://www.w3.org/2000/svg" viewBox="0 0 48 48" id="truck-delivery"><g data-name="Truck Delivery"><path fill="#f8f9f9" d="M30 33H2V9h28z"></path><path fill="#bec6c6" d="M19 9v6l-3-1-3 1V9M30 33h16v-8a3 3 0 0 0-.56-1.74L41 17H30zm0-20h9a3 3 0 0 1 3 3v1H30v-4z"></path><path fill="#414141" d="M30 34H2a1 1 0 0 1-1-1V9a1 1 0 0 1 1-1h28a1 1 0 0 1 1 1v24a1 1 0 0 1-1 1ZM3 32h26V10H3Z"></path><path fill="#f8f9f9" d="M46 37H2v-4h44z"></path><path fill="#414141" d="M46 38H2a1 1 0 0 1-1-1v-4a1 1 0 0 1 1-1h44a1 1 0 0 1 1 1v4a1 1 0 0 1-1 1ZM3 36h42v-2H3Z"></path><path fill="#f8f9f9" d="M46 30h-3a1 1 0 0 1 0-2h3a1 1 0 0 1 0 2zm-10-2h-2a1 1 0 0 1 0-2h2a1 1 0 0 1 0 2zM33 17v7h13l-5-7h-8z"></path><path fill="#414141" d="M46 34H30a1 1 0 0 1-1-1V17a1 1 0 0 1 1-1h11a1 1 0 0 1 .81.42l4.45 6.22A4 4 0 0 1 47 25v8a1 1 0 0 1-1 1Zm-15-2h14v-7a2 2 0 0 0-.37-1.16L40.49 18H31Z"></path><path fill="#414141" d="M42 18H30a1 1 0 0 1-1-1v-4a1 1 0 0 1 1-1h9a4 4 0 0 1 4 4v1a1 1 0 0 1-1 1Zm-11-2h10a2 2 0 0 0-2-2h-8Z"></path><circle cx="38" cy="35" r="4" fill="#bec6c6"></circle><circle cx="10" cy="35" r="4" fill="#bec6c6"></circle><path fill="#414141" d="M38 40a5 5 0 1 1 5-5 5 5 0 0 1-5 5Zm0-8a3 3 0 1 0 3 3 3 3 0 0 0-3-3Z"></path><circle cx="38" cy="35" r="1" fill="#f8f9f9"></circle><path fill="#414141" d="M10 40a5 5 0 1 1 5-5 5 5 0 0 1-5 5Zm0-8a3 3 0 1 0 3 3 3 3 0 0 0-3-3Z"></path><circle cx="10" cy="35" r="1" fill="#f8f9f9"></circle><rect width="10" height="6" x="5" y="24" fill="#6457ff" rx="1"></rect><path fill="#bec6c6" d="M23 30a1 1 0 0 1-1-1v-5a1 1 0 0 1 2 0v5a1 1 0 0 1-1 1Z"></path><path fill="#bec6c6" d="M25 26c-.55 0-.69-.27-2-1.59l-1.29 1.3a1 1 0 0 1-1.42-1.42l2-2a1 1 0 0 1 1.42 0l2 2A1 1 0 0 1 25 26Z"></path><path fill="#414141" d="M19 16c-.23 0-.13 0-3-.95l-2.68.9A1 1 0 0 1 12 15V9a1 1 0 0 1 2 0v4.61l1.68-.56c.43-.14.56 0 2.32.56V9a1 1 0 0 1 2 0v6a1 1 0 0 1-1 1Z"></path></g></svg>